<svg xmlns="http://www.w3.org/2000/svg" width="200" height="200" viewBox="0 0 200 200"><rect width="100%" height="100%" fill="#DDDDDD"/><path fill="#999999" d="M43.655 100.185h2.31q.85 0 1.49-.21.63-.21 1.05-.61.42-.4.63-.97.2-.57.2-1.27 0-.66-.2-1.21-.21-.54-.63-.92-.41-.37-1.04-.58-.63-.2-1.5-.2h-2.31v5.97Zm-3.09-8.36h5.4q1.67 0 2.89.39 1.22.39 2.01 1.09.8.71 1.18 1.68.39.98.39 2.14 0 1.21-.41 2.22-.4 1-1.2 1.73-.81.72-2.02 1.12-1.22.41-2.84.41h-2.31v5.85h-3.09v-16.63Zm13.82-.46h2.84v17.09h-2.84v-17.09Zm11.91 14.04v-1.99q-1.23.06-2.07.22-.83.15-1.34.39-.51.24-.73.57-.21.32-.21.7 0 .74.44 1.07.44.32 1.15.32.88 0 1.52-.32.64-.31 1.24-.96Zm-6-6.2-.5-.9q2.03-1.87 4.89-1.87 1.04 0 1.86.34.81.34 1.38.94.56.61.85 1.45.3.84.3 1.84v7.45h-1.29q-.4 0-.62-.12-.22-.12-.35-.49l-.25-.85q-.45.4-.87.71-.43.3-.89.51-.46.21-.98.31-.53.11-1.16.11-.75 0-1.38-.2-.63-.2-1.09-.6-.46-.4-.71-1-.26-.6-.26-1.39 0-.45.15-.89.15-.45.49-.85.34-.4.88-.76t1.33-.62q.79-.26 1.83-.43 1.05-.17 2.39-.2v-.69q0-1.19-.5-1.76-.51-.57-1.46-.57-.69 0-1.15.17-.45.16-.8.36-.34.2-.62.36-.28.16-.63.16-.3 0-.5-.15-.21-.16-.34-.37Zm20.64-1.09-.74 1.04q-.13.16-.25.25t-.35.09q-.22 0-.43-.13-.2-.13-.49-.3-.29-.17-.69-.3-.39-.13-.98-.13-.75 0-1.31.27t-.94.78q-.37.5-.55 1.22-.19.72-.19 1.63 0 .94.2 1.68.2.73.58 1.23.38.5.92.76t1.22.26q.68 0 1.1-.17.42-.16.71-.36.29-.21.5-.37.21-.17.48-.17.34 0 .51.27l.82 1.03q-.47.55-1.02.93-.56.37-1.15.59-.59.23-1.22.32-.62.09-1.25.09-1.09 0-2.05-.41-.97-.4-1.69-1.19-.73-.78-1.15-1.91-.42-1.13-.42-2.58 0-1.3.38-2.41.37-1.11 1.09-1.92.73-.81 1.8-1.27 1.07-.46 2.46-.46 1.32 0 2.32.42.99.43 1.78 1.22Zm4.13 3.08h5.36q0-.55-.15-1.04-.16-.49-.47-.85-.31-.37-.79-.58-.47-.22-1.11-.22-1.23 0-1.93.7-.71.71-.91 1.99Zm7.25 1.72h-7.3q.06.91.32 1.57.25.66.66 1.09.42.43.99.64.57.22 1.26.22.69 0 1.19-.17.5-.16.87-.35.37-.2.66-.36.28-.16.54-.16.36 0 .53.27l.82 1.03q-.47.55-1.06.93-.59.37-1.22.59-.64.23-1.3.32-.67.09-1.29.09-1.23 0-2.28-.41-1.06-.4-1.84-1.2-.79-.8-1.24-1.98-.44-1.18-.44-2.73 0-1.21.39-2.27.39-1.07 1.12-1.86.73-.78 1.78-1.24 1.05-.46 2.38-.46 1.11 0 2.05.35.95.36 1.63 1.04.67.69 1.06 1.68.38 1 .38 2.27 0 .65-.13.87-.14.23-.53.23Zm5.63-11.55v6.56q.69-.65 1.52-1.05.83-.4 1.94-.4.97 0 1.72.32.75.33 1.25.92.5.6.75 1.42.26.82.26 1.81v7.51h-2.84v-7.51q0-1.08-.49-1.67-.5-.6-1.51-.6-.73 0-1.38.34-.64.33-1.22.91v8.53h-2.84v-17.09h2.84Zm15.36 5.11q1.31 0 2.38.42 1.08.43 1.84 1.21.77.78 1.18 1.91.41 1.13.41 2.52 0 1.4-.41 2.53-.41 1.12-1.18 1.92-.76.79-1.84 1.22-1.07.42-2.38.42-1.33 0-2.41-.42-1.08-.43-1.84-1.22-.77-.8-1.19-1.92-.42-1.13-.42-2.53 0-1.39.42-2.52.42-1.13 1.19-1.91.76-.78 1.84-1.21 1.08-.42 2.41-.42Zm0 9.97q1.47 0 2.17-.99.71-.99.71-2.9t-.71-2.91q-.7-1-2.17-1-1.5 0-2.22 1.01-.72 1-.72 2.9t.72 2.89q.72 1 2.22 1Zm8.02-15.08h2.84v17.09h-2.84v-17.09Zm13.09 13.59v-5.29q-.48-.58-1.05-.82-.57-.25-1.23-.25-.64 0-1.16.25-.52.24-.88.73-.37.49-.57 1.24-.19.75-.19 1.77 0 1.04.16 1.76.17.72.48 1.17.31.46.76.66t1 .2q.89 0 1.51-.37t1.17-1.05Zm0-13.59h2.84v17.09h-1.74q-.56 0-.71-.52l-.24-1.14q-.71.82-1.64 1.33-.93.5-2.16.5-.96 0-1.77-.4-.8-.4-1.38-1.17-.58-.76-.9-1.89-.32-1.13-.32-2.58 0-1.31.36-2.43.36-1.13 1.02-1.96.67-.83 1.6-1.29.93-.47 2.1-.47.98 0 1.69.31.7.31 1.25.84v-6.22Zm7.89 9.83h5.36q0-.55-.16-1.04-.15-.49-.46-.85-.31-.37-.79-.58-.48-.22-1.11-.22-1.23 0-1.94.7-.71.71-.9 1.99Zm7.24 1.72h-7.3q.07.91.32 1.57.26.66.67 1.09.41.43.98.64.57.22 1.26.22.69 0 1.19-.17.5-.16.88-.35.37-.2.65-.36.28-.16.55-.16.35 0 .53.27l.81 1.03q-.47.55-1.05.93-.59.37-1.23.59-.64.23-1.3.32t-1.28.09q-1.23 0-2.29-.41-1.06-.4-1.84-1.2-.78-.8-1.23-1.98-.45-1.18-.45-2.73 0-1.21.39-2.27.39-1.07 1.12-1.86.73-.78 1.79-1.24 1.05-.46 2.37-.46 1.12 0 2.06.35.94.36 1.62 1.04.68.69 1.07 1.68.38 1 .38 2.27 0 .65-.14.87-.14.23-.53.23Zm5.3-5.55.18 1.34q.55-1.06 1.31-1.66.76-.61 1.79-.61.82 0 1.31.36l-.18 2.13q-.06.2-.17.29-.11.09-.29.09-.17 0-.51-.06-.34-.06-.66-.06-.48 0-.84.14-.37.14-.66.4-.3.25-.52.62-.23.37-.42.84v7.27h-2.84v-11.8h1.67q.43 0 .6.16.18.15.23.55Z"/></svg>